<?xml version="1.0" encoding="UTF-8"?>
<svg id="Layer_2" data-name="Layer 2" xmlns="http://www.w3.org/2000/svg" xmlns:xlink="http://www.w3.org/1999/xlink" viewBox="0 0 635.91 58.68">
  <defs>
    <style>
      .cls-1 {
        fill: none;
      }

      .cls-1, .cls-2, .cls-3, .cls-4, .cls-5, .cls-6, .cls-7, .cls-8, .cls-9, .cls-10, .cls-11, .cls-12, .cls-13, .cls-14, .cls-15, .cls-16, .cls-17, .cls-18 {
        stroke-width: 0px;
      }

      .cls-2 {
        fill: url(#linear-gradient);
      }

      .cls-3 {
        fill: url(#linear-gradient-11);
      }

      .cls-4 {
        fill: url(#linear-gradient-12);
      }

      .cls-5 {
        fill: url(#linear-gradient-13);
      }

      .cls-6 {
        fill: url(#linear-gradient-10);
      }

      .cls-7 {
        fill: url(#linear-gradient-15);
      }

      .cls-8 {
        fill: url(#linear-gradient-14);
      }

      .cls-9 {
        opacity: .25;
      }

      .cls-9, .cls-18 {
        fill: #f0f0f0;
      }

      .cls-10 {
        fill: url(#linear-gradient-4);
      }

      .cls-11 {
        fill: url(#linear-gradient-2);
      }

      .cls-12 {
        fill: url(#linear-gradient-3);
      }

      .cls-13 {
        fill: url(#linear-gradient-8);
      }

      .cls-14 {
        fill: url(#linear-gradient-9);
      }

      .cls-15 {
        fill: url(#linear-gradient-7);
      }

      .cls-16 {
        fill: url(#linear-gradient-5);
      }

      .cls-17 {
        fill: url(#linear-gradient-6);
      }
    </style>
    <linearGradient id="linear-gradient" x1="32.42" y1="8.51" x2="9.11" y2="25.76" gradientUnits="userSpaceOnUse">
      <stop offset="0" stop-color="#11998e"/>
      <stop offset="1" stop-color="#38ef7d"/>
    </linearGradient>
    <linearGradient id="linear-gradient-2" x1="46.75" y1="55.38" x2="20.64" y2="11.56" gradientUnits="userSpaceOnUse">
      <stop offset="0" stop-color="#1e83ec"/>
      <stop offset="1" stop-color="#00cdff"/>
    </linearGradient>
    <linearGradient id="linear-gradient-3" x1="33.58" y1="12.71" x2="10.27" y2="29.97" xlink:href="#linear-gradient"/>
    <linearGradient id="linear-gradient-4" x1="56.41" y1="49.2" x2="30.06" y2="4.98" xlink:href="#linear-gradient-2"/>
    <linearGradient id="linear-gradient-5" x1="87.35" y1="6.5" x2="63.03" y2="44.33" gradientUnits="userSpaceOnUse">
      <stop offset="0" stop-color="#ffc837"/>
      <stop offset="1" stop-color="#ff6a08"/>
    </linearGradient>
    <linearGradient id="linear-gradient-6" x1="85.48" y1="13.3" x2="107" y2="28.91" gradientUnits="userSpaceOnUse">
      <stop offset="0" stop-color="#be1e2d"/>
      <stop offset="1" stop-color="#ff4d4d"/>
    </linearGradient>
    <linearGradient id="linear-gradient-7" x1="463.87" y1="42.56" x2="707.18" y2="80.98" gradientUnits="userSpaceOnUse">
      <stop offset="0" stop-color="#ffd9aa"/>
      <stop offset=".69" stop-color="#00aeef"/>
      <stop offset="1" stop-color="#0b121e"/>
    </linearGradient>
    <linearGradient id="linear-gradient-8" x1="464.67" y1="37.45" x2="707.99" y2="75.87" xlink:href="#linear-gradient-7"/>
    <linearGradient id="linear-gradient-9" x1="465.32" y1="33.35" x2="708.64" y2="71.77" xlink:href="#linear-gradient-7"/>
    <linearGradient id="linear-gradient-10" x1="467.12" y1="21.96" x2="710.44" y2="60.38" xlink:href="#linear-gradient-7"/>
    <linearGradient id="linear-gradient-11" x1="466.98" y1="22.88" x2="710.29" y2="61.29" xlink:href="#linear-gradient-7"/>
    <linearGradient id="linear-gradient-12" x1="467.92" y1="16.9" x2="711.24" y2="55.32" xlink:href="#linear-gradient-7"/>
    <linearGradient id="linear-gradient-13" x1="468.27" y1="14.66" x2="711.59" y2="53.08" xlink:href="#linear-gradient-7"/>
    <linearGradient id="linear-gradient-14" x1="428.1" y1="24.18" x2="424.31" y2="24.18" xlink:href="#linear-gradient-7"/>
    <linearGradient id="linear-gradient-15" x1="429.52" y1="15.72" x2="382.41" y2="15.72" xlink:href="#linear-gradient-7"/>
  </defs>
  <g id="Layer_1-2" data-name="Layer 1">
    <g>
      <g>
        <g>
          <path class="cls-1" d="M22.22,14.55s-.04-.06-.11-.17c.08.13.19.29.31.48l-.2-.31Z"/>
          <path class="cls-2" d="M22.42,14.87c-.12-.19-.22-.35-.31-.48-.58-.85-3.57-4.65-9.71-2.91-.07.02-.1.04-.1.04l-9.52,7.53s-5.51,5.91-1.02,12.16c4.49,6.25,11.25,2.98,13.32,1.9,2.02-1.04,12.13-9.53,12.64-9.95v-.02s-5.3-8.28-5.3-8.28Z"/>
          <path class="cls-11" d="M22.42,14.87l5.29,8.28v.02s.03-.02.03-.02c0,0-3.87-6.02-5.32-8.28Z"/>
          <path class="cls-12" d="M22.42,14.87l5.29,8.28v.02s.03-.02.03-.02c0,0-3.87-6.02-5.32-8.28Z"/>
          <path class="cls-10" d="M72.78,40.47l-8.38,13.03s-3.12,5.17-8.78,5.17-8.83-6.33-8.83-6.33l-19.08-29.19s.02-.02.02-.02c0,0-3.87-6.02-5.32-8.28l-.2-.31s-.04-.06-.11-.17c-.58-.86-3.57-4.65-9.71-2.91-.01,0-.02,0-.03,0,1.18-.65,12.21-9.66,12.21-9.66,0,0,7.56-5.43,13.54,2.47,2.21,3.36,17.71,27.46,17.71,27.46l5.61,8.72s5.06,6.9,11.36,0Z"/>
          <path class="cls-16" d="M89.59,14.33c1-1.57,2.34-2.22,3.49-2.81,3.04-1.26,6.22-.03,6.28,0,0,0,0,0,0,0l-12.24-9.69s-7.56-5.43-13.54,2.47c-2.21,3.36-17.73,27.52-17.73,27.52l5.57,8.67h0s0,0,0,0c0,0,0,0,0,.01.3.4,5.24,6.66,11.34-.02l11.16-17.32s-.02-.01-.02-.01c0,0,4.66-7.25,5.67-8.82Z"/>
          <path class="cls-17" d="M109.9,31.21c-4.49,6.25-11.25,2.98-13.32,1.9-2.03-1.05-12.22-9.6-12.64-9.96,0,0-.02-.01-.02-.01,0,0,4.66-7.25,5.67-8.82,1-1.57,2.34-2.22,3.49-2.82,3.03-1.26,6.22-.03,6.28,0,0,0,0,0,0,0l9.52,7.53s5.51,5.91,1.02,12.16Z"/>
        </g>
        <g>
          <path class="cls-18" d="M154.05,30.89v12.28c0,.79.07,1.59.29,2.38.58,1.73,2.17,2.6,4.19,2.1.72-.14.87.07.94.79s.29,2.24.43,3.4c.07.43.07.51-.29.58-2.24.22-4.41.43-6.58-.36s-4.19-3.32-4.84-6.21c-.36-1.66-.51-3.32-.43-4.99,0-6.94-.07-13.87,0-20.81,0-1.37-.14-2.82-.58-4.12-.87-2.6-2.75-4.05-5.78-4.26-.94-.07-1.88,0-2.82.22-2.89.51-5.06,2.89-5.2,5.85-.07.94-.07,1.95-.07,2.89,0,.58.14.65.65.65h4.62c.58,0,.72.22.72.79-.07,1.01-.07,2.1,0,3.11,0,.58-.14.72-.72.72h-4.48c-.65-.07-.79.14-.79.79v19.87c0,.65-.07.94-.87.94h-4.7c-.65,0-.79-.22-.79-.79.07-6.5,0-13.08,0-19.58q0-1.23-1.23-1.23h-3.11c-.36,0-.51-.07-.51-.51s-.07-2.38-.07-3.54c0-.65.22-.58.65-.58h3.61c.51.07.72-.07.72-.65-.14-1.45,0-2.96.29-4.41,1.37-5.13,4.84-8.02,9.83-9.03,3.18-.72,6.43-.51,9.54.51,4.34,1.52,6.43,4.77,7.15,9.11.22,1.88.36,3.76.22,5.64v8.45Z"/>
          <path class="cls-18" d="M185.05,42.09c-4.26,3.47-9.03,3.9-14.09,2.75-5.06-1.16-6.29-3.61-6.94-7.66-.14-1.01-.22-2.1-.22-3.11,0-3.97,0-7.95-.07-11.92,0-.65.22-.79.87-.79h4.7c.65,0,.79.22.79.87v9.68c0,1.3.14,2.67.43,3.97.43,2.17,2.17,3.76,4.34,4.05,1.73.29,3.47.29,5.2-.07,2.75-.65,4.41-2.53,4.84-5.64.14-.65.22-1.37.22-2.02,0-3.4,0-6.79-.07-10.19,0-.58.22-.72.79-.72h4.91c.43,0,.65.07.65.58,0,7.66.07,15.25-.07,22.84-.14,7.59-4.84,12.28-12.07,13.01-3.83.43-7.59.07-11.06-1.81-2.31-1.16-4.19-3.04-5.35-5.35-.29-.51-.14-.65.36-.87l4.48-1.66c.36-.14.58-.22.79.22,1.81,3.83,5.64,4.99,9.54,4.55,3.9-.43,6.5-2.89,6.94-7.15.07-1.16.14-2.38.07-3.54Z"/>
          <path class="cls-18" d="M201.45,26.48v-12.57c-.07-.65.07-.87.72-.79h4.84c.65-.07.79.14.79.72-.07,2.24,0,4.48-.07,6.79,0,.51.14.72.72.65h6.5c.58,0,.72.14.72.65-.07,1.08-.07,2.1,0,3.18,0,.51-.14.65-.72.65h-6.5c-.58,0-.72.14-.72.72.07,3.97.07,8.02,0,12,0,1.66.29,3.18,1.88,4.05,1.66.87,3.61.72,5.13-.22.43-.22.79-.94,1.3-.72.51.22.58.79.87,1.23l1.3,2.02c.22.29.29.43-.07.72-3.69,2.89-9.47,3.11-13.22.36-2.46-1.73-3.47-4.19-3.47-7.15v-12.28h0Z"/>
          <g>
            <path class="cls-18" d="M251.48,34.02c0,8.12-5.78,13.79-13.42,13.79-4.89,0-9-2.45-11.13-6.61v6.4h-2.5V8.99h2.6v17.64c2.19-4.06,6.24-6.4,11.03-6.4,7.65,0,13.42,5.62,13.42,13.79ZM248.87,34.02c0-6.82-4.73-11.45-10.98-11.45s-10.93,4.63-10.93,11.45,4.68,11.45,10.93,11.45,10.98-4.63,10.98-11.45Z"/>
            <path class="cls-18" d="M283.68,20.44v27.16h-2.55v-6.4c-2.13,4.21-6.24,6.61-11.13,6.61-7.65,0-13.42-5.67-13.42-13.79s5.78-13.79,13.42-13.79c4.84,0,8.9,2.39,11.08,6.5v-6.3h2.6ZM281.08,34.02c0-6.82-4.68-11.45-10.93-11.45s-10.93,4.63-10.93,11.45,4.68,11.45,10.93,11.45,10.93-4.63,10.93-11.45Z"/>
            <path class="cls-18" d="M290.65,44.32l1.2-2.08c2.08,1.77,5.78,3.28,9.78,3.28,5.72,0,8.01-2.03,8.01-5.1,0-7.91-18-2.08-18-12.75,0-4.11,3.43-7.44,10.3-7.44,3.43,0,7.18,1.04,9.31,2.65l-1.2,2.08c-2.29-1.66-5.26-2.45-8.17-2.45-5.31,0-7.65,2.19-7.65,5.1,0,8.17,18,2.39,18,12.75,0,4.42-3.8,7.44-10.72,7.44-4.47,0-8.74-1.51-10.87-3.49Z"/>
            <path class="cls-18" d="M339.35,41.67l1.51,1.72c-2.39,2.91-6.09,4.42-10.25,4.42-8.22,0-14.05-5.72-14.05-13.79s5.52-13.79,13.22-13.79c7.23,0,12.38,5.41,12.75,12.64l-22.95,4.47c1.3,5,5.52,8.12,11.08,8.12,3.49,0,6.61-1.25,8.69-3.8ZM319.11,33.81c0,.52.05,1.09.1,1.61l20.71-4.06c-.73-4.84-4.58-8.85-10.15-8.85-6.24,0-10.67,4.68-10.67,11.29Z"/>
          </g>
        </g>
      </g>
      <rect class="cls-9" x="368.85" width="2.14" height="58.68"/>
      <g>
        <path class="cls-15" d="M409.31,47.98c-2.04,0-3.81-.34-5.32-1.01-1.5-.67-2.65-1.61-3.45-2.8-.8-1.19-1.19-2.57-1.19-4.12,0-1.42.34-2.7,1.01-3.86.67-1.16,1.78-2.09,3.32-2.8,1.54-.71,3.6-1.06,6.2-1.06h9.39v2.75h-9.28c-2.63,0-4.45.47-5.47,1.4-1.02.93-1.53,2.09-1.53,3.47,0,1.56.6,2.8,1.81,3.73,1.21.93,2.9,1.4,5.08,1.4s3.86-.47,5.37-1.43c1.5-.95,2.6-2.32,3.29-4.12l.83,2.54c-.69,1.8-1.89,3.23-3.6,4.3-1.71,1.07-3.86,1.61-6.46,1.61ZM418.69,47.72v-6.02l-.16-.99v-10.06c0-2.32-.65-4.1-1.94-5.34-1.3-1.24-3.22-1.87-5.78-1.87-1.76,0-3.44.29-5.03.88-1.59.59-2.94,1.37-4.04,2.33l-1.66-2.75c1.38-1.17,3.04-2.08,4.98-2.72,1.94-.64,3.98-.96,6.12-.96,3.53,0,6.25.87,8.17,2.62,1.92,1.75,2.88,4.4,2.88,7.96v16.9h-3.53Z"/>
        <path class="cls-13" d="M443.53,47.98c-2.7,0-5.11-.6-7.23-1.79-2.13-1.19-3.79-2.83-5-4.93-1.21-2.09-1.82-4.49-1.82-7.18s.6-5.13,1.82-7.21c1.21-2.07,2.88-3.7,5-4.87,2.13-1.17,4.54-1.76,7.23-1.76,2.32,0,4.41.45,6.27,1.35,1.87.9,3.34,2.25,4.41,4.04l-2.75,1.87c-.93-1.38-2.09-2.4-3.47-3.06-1.38-.66-2.89-.99-4.51-.99-1.94,0-3.68.44-5.24,1.32-1.56.88-2.78,2.12-3.68,3.71-.9,1.59-1.35,3.46-1.35,5.6s.45,4.01,1.35,5.6c.9,1.59,2.13,2.83,3.68,3.71,1.56.88,3.3,1.32,5.24,1.32,1.62,0,3.13-.33,4.51-.99,1.38-.66,2.54-1.66,3.47-3.01l2.75,1.87c-1.07,1.76-2.54,3.1-4.41,4.02-1.87.92-3.96,1.37-6.27,1.37Z"/>
        <path class="cls-14" d="M469.09,47.98c-2.04,0-3.81-.34-5.32-1.01-1.5-.67-2.65-1.61-3.45-2.8-.8-1.19-1.19-2.57-1.19-4.12,0-1.42.34-2.7,1.01-3.86.67-1.16,1.78-2.09,3.32-2.8,1.54-.71,3.6-1.06,6.2-1.06h9.39v2.75h-9.28c-2.63,0-4.45.47-5.47,1.4-1.02.93-1.53,2.09-1.53,3.47,0,1.56.6,2.8,1.81,3.73,1.21.93,2.9,1.4,5.08,1.4s3.86-.47,5.37-1.43c1.5-.95,2.6-2.32,3.29-4.12l.83,2.54c-.69,1.8-1.89,3.23-3.6,4.3-1.71,1.07-3.86,1.61-6.46,1.61ZM478.48,47.72v-6.02l-.16-.99v-10.06c0-2.32-.65-4.1-1.94-5.34-1.3-1.24-3.22-1.87-5.78-1.87-1.76,0-3.44.29-5.03.88-1.59.59-2.94,1.37-4.04,2.33l-1.66-2.75c1.38-1.17,3.04-2.08,4.98-2.72,1.94-.64,3.98-.96,6.12-.96,3.53,0,6.25.87,8.17,2.62,1.92,1.75,2.88,4.4,2.88,7.96v16.9h-3.53Z"/>
        <path class="cls-6" d="M502.85,47.98c-2.59,0-4.92-.59-6.97-1.76-2.06-1.17-3.67-2.81-4.85-4.9-1.18-2.09-1.76-4.5-1.76-7.23s.59-5.19,1.76-7.26c1.17-2.07,2.79-3.69,4.85-4.85,2.06-1.16,4.38-1.74,6.97-1.74,2.39,0,4.52.54,6.4,1.61,1.88,1.07,3.39,2.64,4.51,4.69,1.12,2.06,1.69,4.57,1.69,7.55s-.55,5.44-1.66,7.52c-1.11,2.07-2.6,3.66-4.49,4.74-1.88,1.09-4.04,1.63-6.46,1.63ZM503.11,44.71c1.94,0,3.67-.44,5.21-1.32,1.54-.88,2.75-2.13,3.63-3.73.88-1.61,1.32-3.47,1.32-5.57s-.44-4.01-1.32-5.6c-.88-1.59-2.09-2.83-3.63-3.71-1.54-.88-3.28-1.32-5.21-1.32s-3.61.44-5.13,1.32c-1.52.88-2.73,2.12-3.63,3.71-.9,1.59-1.35,3.46-1.35,5.6s.45,3.97,1.35,5.57c.9,1.61,2.11,2.85,3.63,3.73,1.52.88,3.23,1.32,5.13,1.32ZM513.38,47.72v-8.19l.36-5.5-.52-5.5V9.25h3.68v38.48h-3.53Z"/>
        <path class="cls-3" d="M538.73,47.98c-2.83,0-5.32-.6-7.47-1.79-2.14-1.19-3.82-2.83-5.03-4.93-1.21-2.09-1.82-4.49-1.82-7.18s.58-5.08,1.74-7.16c1.16-2.07,2.75-3.71,4.77-4.9,2.02-1.19,4.29-1.79,6.82-1.79s4.83.58,6.82,1.74c1.99,1.16,3.55,2.78,4.69,4.87,1.14,2.09,1.71,4.5,1.71,7.23,0,.17,0,.35-.03.54-.02.19-.03.39-.03.6h-23.7v-2.75h21.73l-1.45,1.09c0-1.97-.42-3.72-1.27-5.26-.85-1.54-2-2.74-3.45-3.6-1.45-.86-3.13-1.3-5.03-1.3s-3.54.43-5.03,1.3c-1.49.86-2.64,2.07-3.47,3.63s-1.24,3.34-1.24,5.34v.57c0,2.07.46,3.9,1.37,5.47.92,1.57,2.2,2.8,3.84,3.68,1.64.88,3.52,1.32,5.63,1.32,1.66,0,3.21-.29,4.64-.88,1.43-.59,2.67-1.49,3.71-2.7l2.07,2.39c-1.21,1.45-2.72,2.56-4.54,3.32-1.82.76-3.81,1.14-5.99,1.14Z"/>
        <path class="cls-4" d="M592.51,20.24c2.21,0,4.14.42,5.78,1.27,1.64.85,2.92,2.13,3.84,3.86.92,1.73,1.37,3.91,1.37,6.53v15.82h-3.68v-15.45c0-2.87-.68-5.04-2.05-6.51-1.37-1.47-3.29-2.2-5.78-2.2-1.87,0-3.48.39-4.85,1.17-1.37.78-2.42,1.9-3.16,3.37-.74,1.47-1.12,3.24-1.12,5.32v14.31h-3.68v-15.45c0-2.87-.69-5.04-2.07-6.51-1.38-1.47-3.32-2.2-5.81-2.2-1.83,0-3.44.39-4.82,1.17-1.38.78-2.45,1.9-3.19,3.37-.74,1.47-1.12,3.24-1.12,5.32v14.31h-3.68v-27.22h3.53v7.36l-.57-1.3c.83-1.97,2.17-3.52,4.02-4.64,1.85-1.12,4.04-1.69,6.56-1.69,2.66,0,4.93.67,6.79,2,1.87,1.33,3.08,3.33,3.63,5.99l-1.45-.57c.79-2.21,2.2-4,4.23-5.37,2.02-1.37,4.45-2.05,7.29-2.05Z"/>
        <path class="cls-5" d="M613.2,58.04c-1.28,0-2.5-.21-3.66-.62-1.16-.41-2.15-1.04-2.98-1.87l1.71-2.75c.69.66,1.44,1.17,2.26,1.53.81.36,1.72.54,2.72.54,1.21,0,2.26-.34,3.14-1.01.88-.67,1.72-1.86,2.51-3.55l1.76-3.99.41-.57,11.2-25.25h3.63l-13.64,30.49c-.76,1.76-1.6,3.16-2.52,4.2-.92,1.04-1.91,1.77-2.98,2.2-1.07.43-2.26.65-3.58.65ZM620.46,48.5l-12.55-28h3.84l11.1,24.99-2.39,3.01Z"/>
      </g>
      <g>
        <path class="cls-8" d="M426.6,20.95s-1.33,4.41-1.33,5.14.6,1.33,1.33,1.33,1.33-.59,1.33-1.33-1.33-5.14-1.33-5.14Z"/>
        <path class="cls-7" d="M400.65,19.66c.14-.08.27-.15.41-.22.33-.18.67-.34,1.02-.5.16-.07.31-.14.47-.21.4-.17.81-.32,1.23-.47.09-.03.18-.07.27-.1.12-.04.25-.07.38-.11.38-.12.76-.23,1.15-.33.19-.05.38-.09.57-.13.35-.08.71-.15,1.07-.21.19-.03.39-.07.58-.09.35-.05.71-.09,1.07-.12.21-.02.43-.05.64-.06.03,0,.06,0,.08,0,.22-.02.43-.04.65-.04.23-.02.47-.02.7-.02h.1s.08,0,.12,0h0c4.33,0,7.8,1.16,10.32,3.45.09.08.16.17.25.26h0s5.12-2.06,5.12-2.06c.22-.09.4-.27.49-.49.18-.46-.04-.98-.49-1.16l-15.65-6.29c-.21-.08-.44-.08-.66,0l-15.64,6.29c-.22.09-.4.27-.49.49-.18.46.04.97.49,1.16l4.43,1.77c.41-.28.85-.55,1.3-.8Z"/>
      </g>
      <path class="cls-15" d="M409.31,47.98c-2.04,0-3.81-.34-5.32-1.01-1.5-.67-2.65-1.61-3.45-2.8-.8-1.19-1.19-2.57-1.19-4.12,0-1.42.34-2.7,1.01-3.86.67-1.16,1.78-2.09,3.32-2.8,1.54-.71,3.6-1.06,6.2-1.06h9.39v2.75h-9.28c-2.63,0-4.45.47-5.47,1.4-1.02.93-1.53,2.09-1.53,3.47,0,1.56.6,2.8,1.81,3.73,1.21.93,2.9,1.4,5.08,1.4s3.86-.47,5.37-1.43c1.5-.95,2.6-2.32,3.29-4.12l.83,2.54c-.69,1.8-1.89,3.23-3.6,4.3-1.71,1.07-3.86,1.61-6.46,1.61ZM418.69,47.72v-6.02l-.16-.99v-10.06c0-2.32-.65-4.1-1.94-5.34-1.3-1.24-3.22-1.87-5.78-1.87-1.76,0-3.44.29-5.03.88-1.59.59-2.94,1.37-4.04,2.33l-1.66-2.75c1.38-1.17,3.04-2.08,4.98-2.72,1.94-.64,3.98-.96,6.12-.96,3.53,0,6.25.87,8.17,2.62,1.92,1.75,2.88,4.4,2.88,7.96v16.9h-3.53Z"/>
    </g>
  </g>
</svg>